<svg xmlns="http://www.w3.org/2000/svg" viewBox="0 0 448 512"><!-- Font Awesome Free calculator icon. License: CC BY 4.0 --><path d="M96 0C60.7 0 32 28.7 32 64V448c0 35.3 28.7 64 64 64H352c35.3 0 64-28.7 64-64V64C416 28.7 387.3 0 352 0H96zM96 64H352V128H96V64zM320 192C337.7 192 352 206.3 352 224C352 241.7 337.7 256 320 256H128C110.3 256 96 241.7 96 224C96 206.3 110.3 192 128 192H320zM192 320C209.7 320 224 334.3 224 352C224 369.7 209.7 384 192 384C174.3 384 160 369.7 160 352C160 334.3 174.3 320 192 320zM288 352C288 334.3 302.3 320 320 320C337.7 320 352 334.3 352 352C352 369.7 337.7 384 320 384C302.3 384 288 369.7 288 352z"/></svg>