<svg xmlns="http://www.w3.org/2000/svg" viewBox="0 0 448 512"><!-- Font Awesome Free calendar-days icon. License: CC BY 4.0 --><path d="M112 0C125.3 0 136 10.7 136 24V56H312V24C312 10.7 322.7 0 336 0C349.3 0 360 10.7 360 24V56H392C418.5 56 440 77.5 440 104V456C440 482.5 418.5 504 392 504H56C29.5 504 8 482.5 8 456V104C8 77.5 29.5 56 56 56H88V24C88 10.7 98.7 0 112 0zM56 104V176H392V104H56zM56 224V456H392V224H56zM184 264C197.3 264 208 274.7 208 288C208 301.3 197.3 312 184 312C170.7 312 160 301.3 160 288C160 274.7 170.7 264 184 264zM328 288C328 274.7 317.3 264 304 264C290.7 264 280 274.7 280 288C280 301.3 290.7 312 304 312C317.3 312 328 301.3 328 288zM184 344C197.3 344 208 354.7 208 368C208 381.3 197.3 392 184 392C170.7 392 160 381.3 160 368C160 354.7 170.7 344 184 344zM304 368C304 354.7 293.3 344 280 344C266.7 344 256 354.7 256 368C256 381.3 266.7 392 280 392C293.3 392 304 381.3 304 368z"/></svg>