<svg xmlns="http://www.w3.org/2000/svg" viewBox="0 0 512 512"><!-- Font Awesome Free chart-line icon. License: CC BY 4.0 --><path d="M32 32C32 14.3 46.3 0 64 0C81.7 0 96 14.3 96 32V352C96 360.8 103.2 368 112 368H480C497.7 368 512 382.3 512 400C512 417.7 497.7 432 480 432H112C85.5 432 64 410.5 64 384V32zM240 264.5L339.3 165.2C350.4 154.1 369.6 154.1 380.7 165.2L480 264.5C490.2 274.7 490.2 293.3 480 303.5C469.8 313.8 451.2 313.8 441 303.5L360 222.5L261.7 320.8C250.6 331.9 231.4 331.9 220.3 320.8L131.3 231.8C121.1 221.6 121.1 203 131.3 192.8C141.6 182.6 160.2 182.6 170.4 192.8L240 264.5z"/></svg>