<svg xmlns="http://www.w3.org/2000/svg" viewBox="0 0 640 512"><!-- Font Awesome Free comments icon. License: CC BY 4.0 --><path d="M96 256c0-88.4 86-160 192-160s192 71.6 192 160s-86 160-192 160c-24.4 0-47.5-3.8-68.9-10.6c-21.6 14.6-66.1 30.1-79.7 35.1c-1.7 .6-3.5 .9-5.3 .9c-4.7 0-9.3-2.1-12.4-6.2c-4.3-5.7-5-13.3-1.7-19.7l18.8-37.7C104.4 355.7 96 307.4 96 256zm440 0c0-17-2.1-33.6-6.1-49.5c-1.3-5.2-6.2-8.5-11.5-7.6c-39.1 6.4-74.5 23.5-102.5 47.7c13.7 22.6 21.1 48.3 21.1 74.8c0 51.1-32.4 96.3-83.9 125.3c8.9 1.1 17.9 1.7 27.1 1.7c24.7 0 49-3.9 71.8-10.9l18.8 37.7c2.8 5.5 8.4 8.8 14.1 8.8c4.2 0 8.4-1.7 11.6-5c38.6-39.5 68-91.3 81.5-146.5C535.9 343.1 536 351.4 536 360c0 57.3-22.7 108.2-59.4 147.5c-2.8 2.9-7.5 3.6-11.6 1.9c-13.7-5-58.2-20.5-79.8-35.1C447.5 476.2 424.4 480 400 480c-88 0-159.7-42.8-185.4-102c.5 0 1.1 0 1.6 0c0 0 0 0 .1 .1C237.7 431.8 317 464 400 464c24.4 0 47.5-3.8 68.9-10.6c21.6 14.6 66.1 30.1 79.7 35.1c1.7 .6 3.5 .9 5.3 .9c4.7 0 9.3-2.1 12.4-6.2c4.3-5.7 5-13.3 1.7-19.7l-18.8-37.7C535.6 324.9 544 276.6 544 225.6C544 146.7 480.6 72.1 396.1 32.8c-3.8-1.7-7.7-2.6-11.7-2.6c-6.4 0-12.7 2.6-17.2 7.9C255.3 16.5 224 110.3 224 256c0 92.2 54.5 167.2 136 202c0 0 0 0 .1 .1c12.1 4.3 24.8 6.7 38 6.7c88.4 0 160-71.6 160-160z"/></svg>