<svg xmlns="http://www.w3.org/2000/svg" viewBox="0 0 448 512"><!-- Font Awesome Free stopwatch icon. License: CC BY 4.0 --><path d="M96 0C96 0 96 0 96 0V64C96 81.7 110.3 96 128 96H192C209.7 96 224 81.7 224 64V32H256C273.7 32 288 17.7 288 0C288 0 288 0 288 0H96zM368 112C385.7 112 400 126.3 400 144C400 161.7 385.7 176 368 176C350.3 176 336 161.7 336 144C336 126.3 350.3 112 368 112zM408.6 258.3C425.3 266.2 432.6 286.7 424.8 303.4C413.3 328.5 392.9 350.8 366.6 368.9C340.3 387 309.3 399.1 276.1 403.8L288.1 464C292.1 482.7 280 500.2 261.3 504.1C242.5 508.1 225.1 496 221.1 477.2L204.7 396.5C200 396.8 195.2 397 190.3 397C151.5 397 115.4 384.6 85.91 361.6C56.35 338.6 34.55 305.7 24.4 269.4C18.1 247.4 33.37 224 56.06 224C69.6 224 81.82 232 86.31 244.4C93.83 263.7 105.6 280.9 120.7 294.6C135.9 308.3 154.1 317.8 173.9 322.2C193.8 326.7 214.1 326.6 233.9 322.3C253.6 317.9 272.1 308.3 288.1 294.6C304.1 280.9 315.5 263.6 323 244.4C327.5 232 339.7 224 353.3 224C377 224 392.2 247.4 385.9 269.4C380.4 288.9 366.1 305.8 349.4 318.6C357.7 308.7 366.4 298.7 375.1 289.1C388.2 274.9 401.6 266.2 408.6 258.3z"/></svg>